<svg width="800" height="120" style="margin: 1em 0px 1em -40px;"><g class="left" transform="translate(40,0)"><g class="link"><path class="to-array from-selection" d="M54.5625,60C77.28125,60 77.28125,60 100,60"></path><path class="to-element from-array" d="M140.984375,60C170.4921875,60 170.4921875,12 200,12"></path><path class="to-element from-array" d="M140.984375,60C170.4921875,60 170.4921875,36 200,36"></path><path class="to-element from-array" d="M140.984375,60C170.4921875,60 170.4921875,60 200,60"></path><path class="to-element from-array" d="M140.984375,60C170.4921875,60 170.4921875,84 200,84"></path><path class="to-element from-array" d="M140.984375,60C170.4921875,60 170.4921875,108 200,108"></path><path class="to-code to-datum from-element" d="M232,12C266,12 266,12 300,12"></path><path class="to-code to-datum from-element" d="M232,36C266,36 266,36 300,36"></path><path class="to-code to-datum from-element" d="M232,60C266,60 266,60 300,60"></path><path class="to-code to-datum from-element" d="M232,84C266,84 266,84 300,84"></path><path class="to-code to-datum from-element" d="M232,108C266,108 266,108 300,108"></path></g><g class="node"><g class="selection" transform="translate(0,60)"><rect ry="6" rx="6" y="-10" height="20" width="54.5625"></rect><text dy=".35em" x="6">selection</text></g><g class="array" transform="translate(100,60)"><rect ry="6" rx="6" y="-10" height="20" width="40.984375"></rect><text dy=".35em" x="6">group</text></g><g class="element" transform="translate(200,12)"><rect ry="6" rx="6" y="-10" height="20" width="32"></rect><text dy=".35em" x="6">div</text></g><g class="code datum" transform="translate(300,12)"><rect ry="6" rx="6" y="-10" height="20" width="67"></rect><text dy=".35em" x="6">{name: "A"}</text></g><g class="element" transform="translate(200,36)"><rect ry="6" rx="6" y="-10" height="20" width="32"></rect><text dy=".35em" x="6">div</text></g><g class="code datum" transform="translate(300,36)"><rect ry="6" rx="6" y="-10" height="20" width="67"></rect><text dy=".35em" x="6">{name: "B"}</text></g><g class="element" transform="translate(200,60)"><rect ry="6" rx="6" y="-10" height="20" width="32"></rect><text dy=".35em" x="6">div</text></g><g class="code datum" transform="translate(300,60)"><rect ry="6" rx="6" y="-10" height="20" width="67"></rect><text dy=".35em" x="6">{name: "C"}</text></g><g class="element" transform="translate(200,84)"><rect ry="6" rx="6" y="-10" height="20" width="32"></rect><text dy=".35em" x="6">div</text></g><g class="code datum" transform="translate(300,84)"><rect ry="6" rx="6" y="-10" height="20" width="67"></rect><text dy=".35em" x="6">{name: "D"}</text></g><g class="element" transform="translate(200,108)"><rect ry="6" rx="6" y="-10" height="20" width="32"></rect><text dy=".35em" x="6">div</text></g><g class="code datum" transform="translate(300,108)"><rect ry="6" rx="6" y="-10" height="20" width="67"></rect><text dy=".35em" x="6">{name: "E"}</text></g></g></g></svg>